<?xml version="1.0" encoding="UTF-8" standalone="no"?>
<!DOCTYPE svg PUBLIC "-//W3C//DTD SVG 1.1//EN" "http://www.w3.org/Graphics/SVG/1.1/DTD/svg11.dtd">
<svg xmlns="http://www.w3.org/2000/svg" version="1.1" viewBox="0 0 485 516">
<path fill="#000000" d="
  M 163.30 36.08
  A 1.00 1.00 0.0 0 0 165.02 36.07
  Q 171.44 24.99 177.65 13.82
  Q 179.30 10.86 179.87 8.90
  Q 180.55 6.55 180.72 4.09
  A 0.99 0.99 0.0 0 1 181.72 3.16
  L 196.31 3.28
  Q 198.07 3.29 197.16 4.80
  Q 183.98 26.50 171.80 48.69
  Q 170.78 50.54 170.77 52.67
  Q 170.72 67.48 170.76 82.25
  Q 170.76 85.17 172.44 89.92
  A 1.00 1.00 0.0 0 1 171.50 91.25
  L 156.73 91.25
  A 1.00 1.00 0.0 0 1 155.77 89.98
  Q 157.45 84.06 157.47 81.20
  Q 157.53 66.26 157.49 51.68
  Q 157.49 51.42 157.36 51.19
  Q 148.22 34.86 139.06 18.66
  Q 134.90 11.30 134.72 11.02
  Q 132.50 7.60 129.72 5.01
  Q 127.88 3.29 130.40 3.28
  L 146.94 3.17
  A 1.00 1.00 0.0 0 1 147.95 4.13
  Q 148.12 8.62 150.20 12.62
  Q 156.48 24.66 163.30 36.08
  Z"
/>
<path fill="#000000" d="
  M 224.73 29.29
  C 244.56 31.59 252.85 51.34 248.06 68.87
  C 240.23 97.52 199.30 101.36 192.80 69.58
  Q 191.05 60.99 194.28 50.37
  C 197.59 39.49 205.51 33.64 216.00 30.27
  Q 220.55 28.81 224.73 29.29
  Z
  M 236.22 50.27
  C 230.43 35.06 210.40 32.04 205.96 50.24
  C 202.31 65.24 209.17 83.37 227.12 83.28
  A 0.97 0.96 26.0 0 0 227.71 83.08
  C 238.10 75.46 240.66 61.96 236.22 50.27
  Z"
/>
<path fill="#000000" d="
  M 286.04 87.79
  C 277.47 96.25 261.06 88.45 261.31 76.67
  Q 261.67 59.72 261.60 42.75
  Q 261.58 36.76 259.00 30.90
  A 1.00 1.00 0.0 0 1 259.91 29.50
  L 274.49 29.50
  A 1.00 0.99 -76.8 0 1 275.38 30.94
  Q 273.52 34.74 273.51 36.49
  Q 273.47 54.76 273.53 73.00
  C 273.56 84.63 287.95 82.59 293.91 77.54
  A 1.02 1.00 70.2 0 0 294.26 76.77
  Q 294.23 59.33 294.27 42.00
  Q 294.28 36.92 292.47 30.99
  A 1.00 1.00 0.0 0 1 293.41 29.70
  L 307.60 29.44
  A 1.00 1.00 0.0 0 1 308.53 30.84
  Q 306.26 36.07 306.26 39.24
  Q 306.24 57.64 306.25 76.03
  Q 306.25 80.66 306.62 83.44
  Q 307.06 86.88 307.92 90.26
  A 1.00 1.00 0.0 0 1 306.95 91.50
  L 294.81 91.50
  A 1.00 1.00 0.0 0 1 293.81 90.45
  L 294.31 80.89
  Q 294.43 78.50 292.89 80.34
  Q 289.64 84.24 286.04 87.79
  Z"
/>
<path fill="#000000" d="
  M 340.13 42.55
  Q 341.28 40.77 342.36 38.87
  C 346.31 31.94 353.84 27.92 361.63 31.03
  A 1.00 1.00 0.0 0 1 362.25 32.09
  L 360.51 45.01
  Q 360.29 46.71 359.13 45.44
  Q 355.98 42.01 351.01 41.76
  Q 344.34 41.42 339.01 47.23
  A 1.02 1.02 0.0 0 0 338.75 47.91
  Q 338.74 63.25 338.76 78.49
  Q 338.77 84.90 340.88 89.89
  A 1.01 1.00 -11.3 0 1 339.95 91.28
  L 325.46 91.23
  A 1.00 0.99 -76.4 0 1 324.58 89.78
  Q 325.51 87.94 326.11 85.97
  Q 326.72 83.92 326.73 80.84
  Q 326.77 61.05 326.73 41.25
  Q 326.72 35.90 325.11 30.80
  A 1.00 1.00 0.0 0 1 326.06 29.50
  L 337.97 29.50
  A 1.00 1.00 0.0 0 1 338.97 30.53
  L 338.65 42.10
  Q 338.57 44.96 340.13 42.55
  Z"
/>
<path fill="#000000" d="
  M 256.81 158.06
  Q 256.30 168.42 256.94 212.84
  Q 257.00 217.64 257.71 220.59
  Q 258.55 224.06 260.01 227.34
  A 1.00 1.00 0.0 0 1 259.10 228.75
  L 242.10 228.75
  A 1.00 1.00 0.0 0 1 241.22 227.27
  Q 243.22 223.62 244.22 219.61
  Q 245.01 216.43 244.99 210.69
  Q 244.88 184.34 245.25 158.00
  Q 245.33 152.03 242.99 143.99
  A 1.00 1.00 0.0 0 1 243.75 142.73
  L 257.50 139.92
  A 1.01 1.00 -0.8 0 1 258.69 141.07
  Q 257.23 149.55 256.81 158.06
  Z"
/>
<path fill="#000000" d="
  M 443.37 178.32
  Q 443.44 180.35 444.77 178.82
  Q 447.38 175.83 450.01 172.87
  Q 452.58 169.99 455.13 168.99
  C 468.08 163.92 479.60 173.95 481.49 186.77
  C 484.29 205.82 475.37 222.28 456.26 227.29
  C 448.44 229.34 438.94 228.78 430.11 228.25
  A 1.00 0.99 -79.6 0 1 429.22 226.95
  C 430.95 221.55 431.72 216.53 431.73 210.42
  Q 431.81 165.92 431.75 157.50
  Q 431.71 150.84 429.61 144.30
  A 1.01 1.00 75.5 0 1 430.37 143.01
  L 444.17 140.31
  A 1.00 1.00 0.0 0 1 445.35 141.43
  Q 442.70 159.78 443.37 178.32
  Z
  M 443.45 182.29
  L 443.34 218.56
  A 0.99 0.99 0.0 0 0 444.12 219.54
  Q 451.22 221.07 454.02 220.54
  Q 466.21 218.24 468.51 205.47
  C 469.85 198.08 469.75 188.54 464.00 183.08
  Q 455.59 175.09 443.97 181.42
  A 0.99 0.99 0.0 0 0 443.45 182.29
  Z"
/>
<path fill="#000000" d="
  M 22.39 219.47
  Q 38.16 218.28 52.97 212.81
  Q 55.18 211.99 54.23 214.15
  L 48.05 228.15
  A 1.01 1.00 11.6 0 1 47.13 228.75
  L 6.30 228.75
  A 1.01 1.00 -82.6 0 1 5.33 227.49
  Q 6.23 224.13 6.98 220.76
  Q 7.80 217.14 7.89 213.16
  Q 8.23 196.73 8.16 162.00
  Q 8.14 150.64 5.69 141.76
  A 1.00 0.99 -7.7 0 1 6.65 140.50
  L 23.55 140.51
  A 1.00 1.00 0.0 0 1 24.50 141.83
  Q 22.12 148.81 21.77 156.25
  Q 21.20 168.65 21.31 218.48
  A 1.01 0.99 -2.1 0 0 22.39 219.47
  Z"
/>
<path fill="#000000" d="
  M 312.23 197.48
  Q 312.32 178.87 312.28 160.25
  Q 312.26 150.79 309.42 141.83
  A 1.00 1.00 0.0 0 1 310.36 140.53
  Q 320.34 140.41 330.49 140.58
  C 342.32 140.78 353.64 146.92 357.05 158.66
  C 360.29 169.79 355.65 180.84 345.33 186.17
  Q 336.85 190.55 326.71 189.38
  A 1.01 1.01 0.0 0 0 325.59 190.33
  Q 324.68 209.15 328.75 227.53
  A 1.00 1.00 0.0 0 1 327.77 228.75
  L 309.54 228.75
  A 1.00 1.00 0.0 0 1 308.57 227.49
  Q 310.54 220.25 311.49 212.86
  Q 312.18 207.40 312.23 197.48
  Z
  M 325.66 147.61
  L 325.43 183.78
  A 1.00 1.00 0.0 0 0 326.54 184.78
  C 351.18 182.08 348.50 147.35 326.70 146.62
  A 1.01 1.00 1.1 0 0 325.66 147.61
  Z"
/>
<path fill="#000000" d="
  M 111.31 172.44
  C 120.02 179.03 122.78 190.81 121.57 201.16
  C 120.14 213.33 112.44 223.38 100.99 227.76
  C 85.74 233.58 69.11 224.30 65.77 208.24
  C 62.08 190.45 69.06 174.57 86.63 168.09
  Q 99.37 163.39 111.31 172.44
  Z
  M 108.99 188.45
  C 105.82 178.73 94.13 169.99 84.37 178.01
  C 76.16 184.76 76.44 198.50 80.07 207.48
  Q 85.41 220.69 99.95 220.65
  A 1.00 0.98 23.7 0 0 100.61 220.40
  Q 115.22 207.51 108.99 188.45
  Z"
/>
<path fill="#000000" d="
  M 402.50 217.00
  L 402.22 217.00
  A 0.34 0.33 19.3 0 0 401.96 217.12
  C 398.62 221.06 394.77 226.32 390.08 227.97
  C 381.68 230.92 370.02 224.38 370.01 214.77
  Q 369.99 196.01 369.99 177.25
  Q 369.99 173.95 367.70 168.18
  A 1.00 1.00 0.0 0 1 368.62 166.81
  L 383.27 166.75
  Q 385.06 166.74 384.13 168.26
  Q 383.14 169.90 382.57 171.76
  Q 382.02 173.52 382.02 176.43
  Q 382.00 191.26 381.98 206.10
  Q 381.98 212.05 383.42 214.68
  C 387.24 221.62 397.15 219.46 402.40 215.03
  A 1.00 1.00 0.0 0 0 402.76 214.26
  Q 402.75 197.18 402.75 180.17
  Q 402.75 176.15 402.35 173.87
  Q 401.87 171.08 400.93 168.39
  A 1.00 0.99 79.9 0 1 401.85 167.06
  L 416.27 166.83
  A 1.00 1.00 0.0 0 1 417.19 168.26
  Q 415.91 170.93 415.29 173.81
  Q 414.80 176.07 414.78 180.38
  Q 414.72 198.56 414.75 216.75
  Q 414.76 220.61 416.40 227.52
  A 1.01 1.00 -6.6 0 1 415.42 228.75
  L 403.39 228.75
  A 1.00 0.99 1.6 0 1 402.39 227.70
  L 402.90 217.43
  A 0.41 0.40 -88.6 0 0 402.50 217.00
  Z"
/>
<path fill="#000000" d="
  M 163.92 218.97
  Q 168.59 218.70 173.12 217.31
  Q 175.23 216.65 174.02 218.51
  L 168.84 226.44
  A 0.94 0.93 7.7 0 1 168.30 226.85
  C 144.43 234.15 125.50 214.51 131.14 190.67
  C 135.92 170.46 154.48 164.56 173.26 168.30
  A 1.01 1.00 8.1 0 1 174.06 169.36
  L 173.31 179.23
  Q 173.16 181.18 171.67 179.92
  Q 167.39 176.30 164.52 175.75
  C 135.59 170.12 134.28 220.70 163.92 218.97
  Z"
/>
<path fill="#000000" d="
  M 192.70 169.21
  C 206.57 165.83 224.19 165.79 224.61 184.92
  Q 224.97 201.58 225.02 218.25
  Q 225.03 220.80 226.81 227.49
  A 1.00 1.00 0.0 0 1 225.85 228.75
  L 214.50 228.75
  A 1.00 1.00 0.0 0 1 213.50 227.75
  L 213.50 222.19
  Q 213.50 220.11 211.88 221.41
  Q 208.36 224.21 204.76 226.91
  Q 202.84 228.35 200.76 228.51
  C 190.46 229.29 178.90 220.47 184.11 209.16
  C 188.46 199.70 203.71 195.03 212.52 191.11
  A 0.99 0.96 87.0 0 0 213.06 190.49
  C 215.16 183.76 211.74 178.98 205.36 177.12
  Q 197.74 174.90 191.01 179.13
  Q 188.74 180.55 189.52 177.99
  L 191.98 169.89
  A 1.01 0.99 -87.8 0 1 192.70 169.21
  Z
  M 197.66 202.30
  C 191.26 215.13 200.38 223.46 212.83 219.06
  A 0.99 0.99 0.0 0 0 213.50 218.12
  L 213.50 202.75
  A 1.00 1.00 0.0 0 0 212.50 201.75
  L 198.56 201.75
  A 1.01 1.01 0.0 0 0 197.66 202.30
  Z"
/>
<path fill="#000000" d="
  M 146.54 301.75
  Q 146.96 299.14 147.68 296.46
  C 150.14 287.37 152.59 281.34 162.80 278.78
  Q 185.83 273.00 209.48 271.26
  C 217.35 270.69 223.12 270.24 229.52 271.95
  C 242.06 275.28 247.40 313.67 248.81 324.69
  C 251.14 342.81 248.41 361.16 243.05 378.51
  C 239.69 389.40 230.20 392.08 220.18 394.13
  Q 203.93 397.47 188.11 398.27
  C 179.10 398.73 172.64 398.94 168.69 390.57
  A 0.98 0.98 0.0 0 0 167.50 390.04
  C 158.24 392.87 151.13 393.98 142.63 388.67
  A 1.00 0.99 -59.6 0 1 142.29 387.33
  L 147.12 378.72
  A 1.00 0.99 -65.1 0 1 148.34 378.27
  Q 153.53 380.24 158.89 379.15
  Q 162.13 378.49 160.72 375.83
  Q 150.63 356.78 146.48 333.76
  Q 145.88 330.44 145.71 315.27
  A 1.01 0.99 -72.9 0 0 145.30 314.48
  C 140.21 310.71 133.38 316.21 131.05 320.83
  A 0.98 0.97 -83.9 0 1 130.41 321.35
  L 116.12 324.94
  A 1.01 1.00 -1.3 0 1 114.89 323.77
  Q 117.02 313.21 125.98 307.21
  Q 134.79 301.31 145.44 302.59
  A 1.00 1.00 0.0 0 0 146.54 301.75
  Z
  M 154.71 305.49
  C 163.65 308.29 171.37 306.89 178.57 301.34
  C 189.58 292.86 193.91 294.16 206.81 298.19
  C 213.93 300.41 220.87 295.51 226.96 292.21
  Q 228.43 291.41 230.13 291.24
  Q 231.47 291.10 232.83 290.91
  A 1.00 1.00 0.0 0 0 233.65 289.64
  Q 232.37 285.29 231.51 283.44
  Q 228.32 276.64 220.75 276.68
  Q 195.45 276.79 170.23 283.29
  C 162.52 285.27 157.66 286.43 155.55 294.00
  Q 154.08 299.32 154.01 304.52
  A 1.00 0.99 -81.1 0 0 154.71 305.49
  Z
  M 226.5397 313.1531
  A 2.13 1.50 75.6 0 0 227.4629 310.7170
  A 2.13 1.50 75.6 0 0 225.4803 309.0269
  A 2.13 1.50 75.6 0 0 224.5571 311.4630
  A 2.13 1.50 75.6 0 0 226.5397 313.1531
  Z
  M 185.1438 319.3789
  A 2.57 1.70 91.7 0 0 186.9193 316.8604
  A 2.57 1.70 91.7 0 0 185.2962 314.2411
  A 2.57 1.70 91.7 0 0 183.5207 316.7596
  A 2.57 1.70 91.7 0 0 185.1438 319.3789
  Z
  M 214.4574 324.7156
  A 1.67 1.19 -33.2 0 0 212.4084 324.6343
  A 1.67 1.19 -33.2 0 0 211.6626 326.5444
  A 1.67 1.19 -33.2 0 0 213.7116 326.6257
  A 1.67 1.19 -33.2 0 0 214.4574 324.7156
  Z
  M 176.6545 336.1985
  A 1.31 1.10 112.7 0 0 178.1748 335.4145
  A 1.31 1.10 112.7 0 0 177.6655 333.7815
  A 1.31 1.10 112.7 0 0 176.1452 334.5655
  A 1.31 1.10 112.7 0 0 176.6545 336.1985
  Z
  M 219.4353 350.8975
  A 1.88 1.07 114.0 0 0 221.1775 349.6152
  A 1.88 1.07 114.0 0 0 220.9647 347.4625
  A 1.88 1.07 114.0 0 0 219.2225 348.7448
  A 1.88 1.07 114.0 0 0 219.4353 350.8975
  Z"
/>
<path fill="#000000" d="
  M 402.06 377.63
  C 402.35 377.98 403.05 378.23 403.31 377.87
  A 0.41 0.41 0.0 0 0 403.30 377.38
  C 394.96 366.72 389.33 350.83 395.83 337.81
  A 1.01 1.00 29.9 0 0 395.48 336.52
  L 392.17 334.39
  A 1.00 1.00 0.0 0 0 390.75 334.75
  C 388.49 338.86 383.98 346.81 378.85 346.59
  C 376.45 346.48 375.64 345.00 375.80 342.69
  Q 376.65 330.05 385.52 321.02
  Q 387.62 318.89 390.61 319.04
  C 410.01 320.02 427.36 332.67 437.64 348.85
  C 445.67 361.49 441.47 378.53 433.26 390.00
  C 430.99 393.17 429.10 394.51 425.09 395.33
  Q 397.73 400.98 372.00 390.25
  C 370.63 389.68 369.37 387.68 367.44 389.01
  C 358.89 394.89 351.27 393.90 341.68 391.72
  A 0.99 0.97 31.8 0 0 340.84 391.91
  C 337.76 394.36 334.79 397.75 330.98 398.74
  C 313.34 403.29 286.58 394.55 271.33 386.40
  C 266.53 383.84 265.70 375.89 265.21 371.00
  C 262.31 341.50 264.70 303.88 281.27 278.31
  C 283.35 275.11 286.40 273.73 290.39 273.60
  Q 298.79 273.33 304.25 274.26
  C 323.07 277.48 342.86 281.32 360.68 288.33
  Q 364.26 289.74 365.75 293.51
  Q 367.07 296.86 367.42 306.49
  A 1.00 1.00 0.0 0 0 368.50 307.45
  Q 376.75 306.80 383.15 310.80
  Q 386.43 312.85 388.21 316.68
  A 1.01 1.00 -25.9 0 1 387.75 318.00
  Q 383.90 319.90 381.47 323.41
  A 1.00 1.00 0.0 0 1 379.75 323.28
  Q 379.56 322.91 379.42 322.51
  Q 379.33 322.28 379.15 322.11
  Q 373.79 317.23 366.39 319.65
  A 1.01 1.01 0.0 0 0 365.71 320.48
  C 363.43 339.48 358.26 363.33 348.13 380.08
  A 1.01 1.00 29.0 0 0 348.54 381.50
  Q 355.49 384.92 361.04 379.32
  A 1.01 1.00 -56.0 0 1 362.14 379.10
  C 367.61 381.36 385.34 387.15 386.18 376.28
  Q 386.49 372.15 382.84 369.62
  A 1.00 1.00 0.0 0 1 382.95 367.91
  Q 383.99 367.38 384.99 366.64
  Q 386.32 365.66 386.93 364.34
  Q 388.72 360.43 385.17 357.60
  Q 384.08 356.73 385.37 356.23
  Q 389.63 354.56 389.27 349.77
  Q 389.02 346.53 387.12 343.92
  A 0.99 0.98 -46.8 0 1 387.09 342.79
  L 391.32 336.28
  A 0.99 0.99 0.0 0 1 392.72 336.00
  L 393.95 336.85
  A 1.01 0.99 -58.4 0 1 394.25 338.16
  C 387.45 350.36 394.07 368.00 402.06 377.63
  Z
  M 281.78 297.09
  Q 287.24 297.42 292.27 299.53
  C 297.94 301.91 303.21 298.53 307.26 298.01
  C 313.18 297.25 319.81 302.56 324.73 305.76
  C 334.81 312.33 347.71 312.55 358.61 307.87
  A 1.01 1.00 -11.5 0 0 359.21 306.97
  C 359.34 301.46 359.67 296.57 354.27 293.47
  Q 348.08 289.91 339.32 287.29
  Q 318.46 281.06 296.76 279.76
  C 291.34 279.44 287.52 281.58 284.75 286.39
  Q 282.18 290.87 280.87 295.84
  A 1.00 1.00 0.0 0 0 281.78 297.09
  Z
  M 290.2022 321.6801
  A 2.41 1.90 112.9 0 0 292.8903 320.1993
  A 2.41 1.90 112.9 0 0 292.0778 317.2399
  A 2.41 1.90 112.9 0 0 289.3897 318.7207
  A 2.41 1.90 112.9 0 0 290.2022 321.6801
  Z
  M 310.0098 320.5752
  A 1.73 1.32 120.2 0 0 312.0208 319.7440
  A 1.73 1.32 120.2 0 0 311.7502 317.5848
  A 1.73 1.32 120.2 0 0 309.7392 318.4160
  A 1.73 1.32 120.2 0 0 310.0098 320.5752
  Z
  M 333.7733 348.0573
  A 1.47 0.90 108.1 0 0 335.0855 346.9396
  A 1.47 0.90 108.1 0 0 334.6867 345.2627
  A 1.47 0.90 108.1 0 0 333.3745 346.3804
  A 1.47 0.90 108.1 0 0 333.7733 348.0573
  Z"
/>
<path fill="#000000" d="
  M 107.26 328.77
  C 108.10 331.59 138.23 313.37 140.37 330.38
  C 140.72 333.13 139.54 336.36 139.43 339.48
  A 0.98 0.97 25.7 0 0 139.68 340.18
  Q 146.20 347.40 143.07 356.87
  A 1.02 1.00 34.7 0 0 143.25 357.82
  Q 147.50 363.02 145.65 369.58
  A 1.04 1.02 44.5 0 0 145.66 370.16
  C 148.20 378.20 141.58 387.36 135.17 391.13
  Q 117.63 401.47 97.50 404.44
  C 72.55 408.13 59.78 391.11 61.64 367.81
  C 62.50 356.92 71.42 344.49 79.27 337.77
  Q 94.83 324.46 113.73 316.60
  Q 115.63 315.81 115.08 317.79
  L 112.85 325.76
  A 0.99 0.99 0.0 0 1 112.23 326.42
  L 107.57 328.15
  A 0.50 0.50 0.0 0 0 107.26 328.77
  Z"
/>
<path fill="#000000" d="
  M 373.72 337.60
  C 364.94 331.34 371.58 320.23 379.09 325.19
  A 1.00 1.00 0.0 0 1 379.41 326.50
  Q 376.68 331.52 375.26 337.04
  A 0.99 0.99 0.0 0 1 373.72 337.60
  Z"
/>
<path fill="#000000" d="
  M 374.29 342.79
  C 375.23 349.53 381.00 348.35 384.95 345.27
  A 1.00 1.00 0.0 0 1 386.46 345.61
  Q 390.22 353.21 384.11 354.70
  C 380.56 355.56 376.55 353.78 372.85 352.67
  C 368.66 351.41 365.53 350.93 364.82 346.83
  C 363.82 341.14 368.52 338.05 373.92 340.34
  A 1.00 0.99 7.6 0 1 374.52 341.11
  Q 374.60 341.66 374.35 342.28
  A 1.00 0.95 -39.6 0 0 374.29 342.79
  Z"
/>
<path fill="#000000" d="
  M 361.72 362.42
  A 1.00 0.96 -74.3 0 1 361.29 361.62
  C 360.97 348.93 374.91 354.58 381.99 357.26
  C 390.28 360.39 384.79 368.17 377.95 367.21
  C 372.29 366.42 366.72 365.82 361.72 362.42
  Z"
/>
<path fill="#000000" d="
  M 378.23 381.30
  C 373.46 381.25 355.84 379.18 358.23 371.10
  C 359.98 365.14 363.98 366.28 369.35 367.12
  C 373.87 367.83 383.45 369.15 384.91 374.15
  C 386.31 378.96 382.65 381.34 378.23 381.30
  Z"
/>
<path fill="#000000" d="
  M 156.50 486.66
  L 161.39 477.29
  A 1.01 1.01 0.0 0 1 162.27 476.75
  L 164.94 476.75
  Q 166.70 476.75 165.80 478.26
  Q 162.46 483.88 159.26 489.51
  Q 157.94 491.84 157.79 494.31
  Q 157.48 499.48 158.06 504.64
  A 1.00 0.99 -3.3 0 1 157.07 505.75
  L 154.14 505.75
  A 1.00 0.99 1.4 0 1 153.14 504.71
  L 153.65 493.20
  A 0.97 0.92 -59.8 0 0 153.52 492.65
  L 145.20 478.24
  A 1.01 1.00 -15.9 0 1 146.04 476.74
  L 149.11 476.65
  A 1.01 1.01 0.0 0 1 150.08 477.29
  Q 151.97 482.23 154.77 486.72
  Q 155.69 488.21 156.50 486.66
  Z"
/>
<path fill="#000000" d="
  M 302.90 490.92
  Q 303.64 491.65 304.41 492.34
  C 309.85 497.18 305.90 504.12 299.76 505.29
  Q 295.32 506.13 290.87 505.61
  A 1.01 1.00 7.1 0 1 289.99 504.49
  Q 291.63 491.16 290.12 477.81
  A 1.00 1.00 0.0 0 1 291.00 476.70
  Q 297.23 476.04 299.45 476.97
  Q 309.78 481.31 302.84 489.57
  A 1.00 1.00 0.0 0 0 302.90 490.92
  Z
  M 297.89 479.73
  Q 294.97 477.74 294.98 481.23
  L 295.00 488.64
  A 1.01 1.00 81.4 0 0 296.29 489.60
  Q 299.03 488.76 300.10 486.59
  Q 302.07 482.58 297.89 479.73
  Z
  M 297.90 491.57
  Q 294.99 489.39 294.99 492.97
  L 295.00 502.11
  A 1.00 0.99 -1.6 0 0 296.06 503.10
  Q 297.31 503.03 298.47 502.65
  Q 300.10 502.12 300.99 500.64
  Q 303.80 495.98 297.90 491.57
  Z"
/>
<path fill="#000000" d="
  M 171.1555 505.7295
  A 10.59 9.48 106.2 0 1 165.0064 492.9152
  A 10.59 9.48 106.2 0 1 177.0645 485.3905
  A 10.59 9.48 106.2 0 1 183.2136 498.2048
  A 10.59 9.48 106.2 0 1 171.1555 505.7295
  Z
  M 175.4948 503.0725
  A 7.77 5.56 81.9 0 0 179.9045 494.5966
  A 7.77 5.56 81.9 0 0 173.3052 487.6875
  A 7.77 5.56 81.9 0 0 168.8955 496.1634
  A 7.77 5.56 81.9 0 0 175.4948 503.0725
  Z"
/>
<path fill="#000000" d="
  M 208.5833 505.7441
  A 10.61 9.46 105.9 0 1 202.3919 492.9483
  A 10.61 9.46 105.9 0 1 214.3967 485.3359
  A 10.61 9.46 105.9 0 1 220.5881 498.1317
  A 10.61 9.46 105.9 0 1 208.5833 505.7441
  Z
  M 212.8293 503.0662
  A 7.78 5.53 82.1 0 0 217.2375 494.5999
  A 7.78 5.53 82.1 0 0 210.6907 487.6538
  A 7.78 5.53 82.1 0 0 206.2825 496.1201
  A 7.78 5.53 82.1 0 0 212.8293 503.0662
  Z"
/>
<path fill="#000000" d="
  M 263.8805 505.7067
  A 10.62 9.49 106.8 0 1 257.8650 492.7971
  A 10.62 9.49 106.8 0 1 270.0195 485.3733
  A 10.62 9.49 106.8 0 1 276.0350 498.2829
  A 10.62 9.49 106.8 0 1 263.8805 505.7067
  Z
  M 268.2191 503.0805
  A 7.76 5.54 82.9 0 0 272.7575 494.6952
  A 7.76 5.54 82.9 0 0 266.3009 487.6795
  A 7.76 5.54 82.9 0 0 261.7625 496.0648
  A 7.76 5.54 82.9 0 0 268.2191 503.0805
  Z"
/>
<path fill="#000000" d="
  M 192.28 489.27
  L 192.55 489.25
  A 0.29 0.29 0.0 0 0 192.80 489.07
  Q 194.40 485.26 198.76 485.22
  A 1.00 1.00 0.0 0 1 199.75 486.39
  L 199.30 489.04
  A 1.00 0.99 -72.2 0 1 197.88 489.77
  Q 194.98 488.35 192.41 490.70
  A 1.01 0.98 -20.1 0 0 192.08 491.39
  Q 191.72 498.04 192.31 504.66
  A 1.01 1.00 87.6 0 1 191.31 505.75
  L 188.70 505.75
  A 1.00 0.99 -87.9 0 1 187.71 504.68
  Q 188.39 495.52 187.76 486.35
  A 0.99 0.99 0.0 0 1 188.48 485.32
  Q 193.11 483.99 191.85 488.75
  A 0.42 0.41 -84.9 0 0 192.28 489.27
  Z"
/>
<path fill="#000000" d="
  M 233.02 505.73
  C 218.31 504.34 221.94 482.41 237.35 485.62
  A 1.00 0.99 8.2 0 1 238.14 486.67
  L 238.03 488.07
  A 1.00 1.00 0.0 0 1 236.53 488.86
  Q 231.70 486.03 228.68 490.94
  Q 227.28 493.23 227.93 496.72
  Q 229.08 502.90 236.34 502.65
  Q 238.39 502.58 237.18 504.24
  Q 235.89 506.01 233.02 505.73
  Z"
/>
<path fill="#000000" d="
  M 242.60 502.30
  Q 242.48 502.19 242.40 502.06
  C 237.45 493.10 243.92 483.34 254.20 485.58
  A 1.01 1.01 0.0 0 1 254.99 486.59
  L 254.95 488.02
  A 1.01 1.00 -75.9 0 1 253.50 488.89
  Q 248.98 486.64 246.41 489.77
  Q 244.50 492.10 244.75 495.90
  Q 245.24 503.29 253.13 502.66
  Q 255.12 502.50 254.06 504.18
  Q 253.98 504.32 253.88 504.46
  C 251.50 507.86 245.11 504.65 242.60 502.30
  Z"
/>
<path fill="#000000" d="
  M 319.58 505.57
  C 306.18 507.40 307.16 485.10 318.01 485.32
  C 323.65 485.43 324.47 490.31 324.79 494.88
  A 0.99 0.99 0.0 0 1 323.82 495.95
  L 315.05 496.12
  A 1.01 1.00 -6.7 0 0 314.09 497.33
  Q 315.54 504.27 321.95 501.80
  Q 324.04 501.00 323.24 503.09
  Q 322.44 505.18 319.58 505.57
  Z
  M 321.18 493.57
  A 1.00 1.00 0.0 0 0 322.18 492.50
  C 321.97 488.99 318.84 485.94 315.69 488.86
  Q 314.21 490.23 314.04 492.48
  A 1.00 1.00 0.0 0 0 315.04 493.55
  L 321.18 493.57
  Z"
/>
<path fill="#000000" d="
  M 330.60 503.66
  Q 330.43 503.53 330.32 503.35
  C 321.66 488.56 341.67 475.53 343.28 494.84
  A 1.00 0.99 86.7 0 1 342.32 495.92
  L 333.55 496.19
  A 1.00 1.00 0.0 0 0 332.60 497.39
  Q 333.96 504.05 340.46 501.72
  Q 342.83 500.87 341.69 503.11
  L 341.05 504.37
  A 0.95 0.93 0.6 0 1 340.58 504.82
  Q 335.45 507.17 330.60 503.66
  Z
  M 338.31 488.19
  Q 335.27 486.83 333.49 489.51
  Q 332.61 490.85 332.58 492.56
  A 1.01 1.01 0.0 0 0 333.60 493.58
  L 339.63 493.47
  A 1.00 0.99 2.6 0 0 340.61 492.58
  Q 340.94 489.36 338.31 488.19
  Z"
/>
<path fill="#000000" d="
  M 353.10 488.04
  L 353.97 486.90
  Q 354.08 486.76 354.23 486.66
  Q 360.34 482.79 359.09 489.15
  A 1.00 1.00 0.0 0 1 357.63 489.83
  Q 354.75 488.26 352.16 490.70
  A 0.99 0.97 70.3 0 0 351.85 491.37
  Q 351.45 498.03 352.06 504.66
  A 1.00 1.00 0.0 0 1 351.06 505.75
  L 348.45 505.75
  A 1.00 1.00 0.0 0 1 347.45 504.67
  Q 348.18 495.51 347.47 486.33
  A 1.01 1.00 87.9 0 1 348.47 485.25
  L 350.80 485.25
  A 1.01 0.99 3.3 0 1 351.80 486.36
  L 351.67 487.47
  Q 351.34 490.37 353.10 488.04
  Z"
/>
</svg>
