<?xml version="1.0" standalone="no"?>
<!DOCTYPE svg PUBLIC "-//W3C//DTD SVG 20010904//EN"
 "http://www.w3.org/TR/2001/REC-SVG-20010904/DTD/svg10.dtd">
<svg version="1.0" xmlns="http://www.w3.org/2000/svg"
 width="600.000000pt" height="600.000000pt" viewBox="0 0 600.000000 600.000000"
 preserveAspectRatio="xMidYMid meet">
<metadata>
Created by potrace 1.11, written by Peter Selinger 2001-2013
</metadata>
<g transform="translate(0.000000,600.000000) scale(0.100000,-0.100000)"
fill="#000000" stroke="none">
<path d="M2955 5276 c-42 -18 -74 -41 -107 -76 -100 -111 -141 -237 -141 -435
1 -190 38 -297 139 -400 74 -75 131 -100 224 -100 64 0 83 4 128 30 147 81
225 248 225 485 0 176 -48 313 -146 418 -67 70 -115 94 -197 99 -53 3 -77 -1
-125 -21z m180 -58 c100 -87 155 -340 125 -574 -28 -223 -90 -334 -187 -334
-50 0 -80 19 -117 74 -89 131 -117 381 -71 621 39 207 150 301 250 213z"/>
<path d="M3022 4837 c-13 -78 -7 -114 25 -149 24 -27 51 -23 46 5 -3 13 5 41
16 63 31 57 27 86 -14 123 -20 17 -41 31 -48 31 -8 0 -18 -27 -25 -73z"/>
<path d="M2060 5129 c-71 -12 -166 -59 -208 -102 -32 -33 -34 -34 -70 -22 -38
13 -88 10 -98 -6 -3 -5 2 -12 11 -15 23 -9 38 -44 114 -262 97 -276 178 -498
195 -530 41 -79 129 -118 214 -96 29 8 28 22 -2 35 -29 13 -57 72 -121 253
-25 70 -45 128 -45 129 0 1 33 2 73 3 75 0 110 13 174 61 18 14 36 22 41 19 5
-3 31 -67 57 -143 39 -111 56 -145 86 -175 34 -35 41 -38 93 -38 57 0 96 12
96 30 0 6 -6 10 -13 10 -30 0 -50 31 -87 134 -48 133 -79 187 -128 223 -20 15
-41 30 -46 34 -4 4 0 31 9 59 23 68 16 150 -20 227 -61 135 -178 197 -325 172z
m84 -83 c64 -49 123 -173 133 -282 l6 -64 -40 0 c-60 0 -138 -29 -183 -68 -23
-19 -42 -33 -44 -31 -1 2 -18 47 -36 99 -18 52 -46 128 -62 168 -32 78 -32
102 3 146 55 69 155 84 223 32z m110 -394 c9 -14 -32 -70 -61 -85 -45 -23 -87
-29 -106 -15 -16 12 -16 15 3 46 11 18 35 39 53 47 35 16 103 20 111 7z"/>
<path d="M3946 5105 c-89 -31 -138 -66 -200 -142 -139 -167 -200 -409 -147
-583 28 -92 58 -140 121 -189 73 -58 125 -75 213 -69 58 4 86 12 136 38 59 32
111 82 111 108 0 17 -60 82 -76 82 -8 0 -14 -10 -14 -24 0 -66 -101 -144 -197
-153 -49 -4 -63 -1 -93 19 -20 13 -46 45 -60 73 -22 44 -25 62 -24 150 1 90 5
113 42 223 93 275 197 416 318 430 57 6 85 -2 119 -35 44 -44 69 -108 56 -145
-6 -17 -11 -39 -11 -49 0 -23 49 -81 50 -58 0 8 23 45 52 82 50 66 51 68 40
106 -13 40 -47 91 -63 91 -5 0 -9 -11 -9 -25 0 -14 -3 -25 -6 -25 -3 0 -27 19
-54 43 -51 46 -130 77 -196 77 -21 0 -70 -11 -108 -25z"/>
<path d="M4800 4649 c-144 -28 -339 -189 -418 -347 -49 -99 -66 -173 -60 -272
8 -131 88 -250 196 -290 93 -35 240 -22 293 26 24 22 24 50 -1 92 -20 33 -40
42 -40 19 0 -17 -36 -50 -80 -73 -23 -12 -57 -18 -101 -18 -85 0 -126 22 -158
88 -23 45 -24 53 -13 119 20 130 111 276 272 437 103 102 174 143 264 148 48
2 68 -1 93 -17 67 -42 96 -163 53 -218 -22 -29 -27 -97 -8 -109 6 -4 14 -2 16
5 2 7 35 32 73 57 61 39 69 48 70 76 2 50 -2 81 -12 101 -11 20 -29 23 -29 4
0 -7 -5 -18 -11 -24 -8 -8 -19 4 -41 49 -61 121 -198 178 -358 147z"/>
<path d="M1155 4637 c-92 -37 -149 -99 -181 -196 -13 -40 -15 -71 -11 -132 11
-143 83 -283 216 -422 117 -121 190 -158 329 -165 95 -4 99 -3 162 30 175 91
210 296 90 528 -80 153 -217 284 -353 336 -79 30 -204 41 -252 21z m86 -77
c159 -44 400 -315 475 -534 29 -84 30 -131 4 -173 -63 -103 -205 -70 -373 87
-184 172 -309 408 -286 536 15 85 75 113 180 84z"/>
<path d="M1296 4271 c-9 -14 52 -118 85 -146 19 -15 43 -25 63 -25 42 0 49 7
27 29 -10 10 -21 38 -25 62 -10 63 -38 89 -97 89 -26 0 -50 -4 -53 -9z"/>
<path d="M3056 3993 c-3 -10 -37 -42 -75 -72 -90 -69 -133 -129 -139 -190 -3
-34 0 -50 11 -59 12 -10 16 -9 21 11 3 15 33 43 80 76 88 60 122 98 136 150
15 57 -17 136 -34 84z"/>
<path d="M503 3979 c-42 -12 -52 -29 -18 -29 65 0 127 -55 210 -185 94 -148
165 -267 165 -278 -1 -17 -31 -53 -57 -66 -52 -27 -81 -16 -253 90 -143 89
-194 107 -257 90 -42 -11 -103 -54 -103 -72 0 -5 12 -9 26 -9 16 0 93 -42 197
-107 163 -102 175 -108 233 -111 85 -6 158 27 205 92 19 25 37 45 40 46 3 0
15 -18 28 -40 35 -62 99 -139 134 -161 63 -38 161 -18 212 43 31 36 25 50 -15
35 -28 -11 -33 -9 -71 28 -41 40 -164 219 -274 398 -85 139 -142 201 -211 226
-58 22 -136 26 -191 10z"/>
<path d="M5330 3952 c-177 -59 -369 -202 -428 -319 -95 -184 -52 -381 100
-459 124 -63 265 -52 447 37 91 44 116 63 190 138 225 226 225 483 2 593 -63
32 -230 37 -311 10z m340 -98 c44 -18 70 -55 70 -101 0 -58 -57 -154 -143
-238 -211 -207 -514 -329 -628 -252 -149 100 50 377 388 538 142 68 236 84
313 53z"/>
<path d="M5399 3646 c-8 -7 -35 -20 -60 -30 -60 -21 -89 -54 -96 -105 -6 -42
5 -53 26 -27 6 7 35 16 64 19 68 8 97 39 97 102 0 48 -9 61 -31 41z"/>
<path d="M3157 3916 c24 -21 50 -58 67 -95 39 -86 90 -108 63 -26 -17 49 -54
97 -98 127 -59 40 -81 35 -32 -6z"/>
<path d="M2755 3809 c4 -6 -33 -50 -83 -99 -103 -102 -142 -168 -142 -242 0
-53 22 -108 44 -108 8 0 11 10 8 29 -6 43 20 82 103 157 109 98 150 193 109
252 -15 22 -52 32 -39 11z"/>
<path d="M3340 3795 c0 -8 -21 -38 -47 -67 -27 -29 -58 -66 -71 -82 l-22 -29
-23 20 c-22 21 -60 43 -72 43 -4 0 14 -19 39 -42 46 -43 46 -43 35 -83 -21
-76 3 -169 51 -195 18 -10 22 -7 36 26 11 27 14 53 10 88 -7 51 -6 51 40 96
76 74 105 166 68 218 -17 25 -44 29 -44 7z m-90 -387 c0 -21 -4 -38 -9 -38
-15 0 -23 38 -16 72 9 40 25 18 25 -34z"/>
<path d="M3030 3733 c0 -10 -28 -45 -61 -79 l-61 -62 -44 46 c-55 57 -67 49
-20 -13 40 -52 42 -61 20 -90 -52 -69 -27 -209 34 -188 20 7 42 58 42 97 0 29
8 41 50 76 28 24 60 60 70 81 26 49 26 110 2 132 -24 22 -32 21 -32 0z m-114
-308 c-9 -47 -18 -66 -29 -62 -20 6 -19 32 3 60 27 33 32 34 26 2z"/>
<path d="M3442 3683 c50 -51 80 -123 86 -205 5 -74 14 -85 31 -37 17 49 13 89
-14 144 -26 55 -45 79 -89 113 -45 35 -54 26 -14 -15z"/>
<path d="M3058 3452 c-3 -10 -46 -51 -96 -91 -50 -40 -103 -88 -117 -107 l-27
-35 -36 32 c-45 40 -128 79 -167 79 -26 0 -23 -4 30 -29 33 -16 80 -49 104
-74 44 -46 44 -47 33 -85 -16 -53 -15 -145 2 -186 24 -59 96 -98 110 -60 21
54 16 149 -10 218 -3 7 14 25 38 42 133 89 178 146 178 227 0 68 -30 117 -42
69z m-188 -412 c12 -46 10 -145 -4 -145 -5 0 -18 13 -30 28 -24 32 -27 98 -7
135 17 32 29 27 41 -18z"/>
<path d="M3586 3433 c-3 -10 -45 -43 -93 -73 -49 -30 -104 -69 -124 -87 l-37
-33 -25 33 c-39 52 -177 136 -177 108 0 -5 9 -13 21 -16 30 -10 86 -62 121
-112 l30 -45 -31 -62 c-43 -84 -59 -179 -38 -229 19 -45 43 -48 82 -10 41 42
57 81 63 153 2 36 10 71 16 79 6 7 49 39 96 71 93 63 130 112 130 173 0 59
-21 90 -34 50z m-250 -405 c-9 -67 -42 -128 -69 -128 -20 0 -1 95 28 138 37
57 49 54 41 -10z"/>
<path d="M2490 3385 c0 -9 -21 -61 -46 -116 -27 -60 -48 -120 -51 -152 -12
-118 40 -235 131 -291 55 -34 72 -28 27 10 -47 40 -71 93 -71 161 0 48 8 75
45 153 58 123 58 166 2 228 -24 26 -37 28 -37 7z"/>
<path d="M3653 3298 c17 -35 21 -61 21 -138 0 -109 -19 -170 -85 -269 -21 -32
-39 -61 -39 -65 0 -4 13 0 29 8 40 21 90 81 120 146 47 100 29 270 -36 343
-28 30 -32 19 -10 -25z"/>
<path d="M3061 3013 c4 -24 -9 -43 -95 -132 -52 -54 -97 -107 -100 -118 -6
-19 -8 -19 -63 9 -46 23 -69 28 -127 28 -91 0 -120 -16 -40 -22 57 -4 123 -30
173 -67 20 -15 23 -27 25 -83 1 -42 9 -78 22 -104 21 -40 79 -88 95 -78 15 9
10 121 -7 164 l-16 40 85 89 c77 80 86 93 97 146 10 47 9 64 -2 94 -8 20 -22
37 -31 39 -10 2 -17 0 -16 -5z m-147 -432 c20 -37 36 -110 26 -116 -10 -6 -46
35 -55 63 -6 21 2 82 11 82 2 0 10 -13 18 -29z"/>
<path d="M3891 2889 c-9 -45 -9 -64 0 -81 12 -21 13 -20 31 32 20 58 18 94 -6
103 -10 4 -17 -10 -25 -54z"/>
<path d="M2196 2917 c-18 -27 -18 -29 5 -88 20 -49 25 -56 32 -41 5 11 3 47
-5 88 l-14 69 -18 -28z"/>
<path d="M3169 2885 c39 -43 73 -105 87 -161 4 -17 -2 -33 -21 -56 -39 -46
-65 -112 -65 -163 0 -110 86 -65 131 69 l17 51 122 27 c181 41 260 93 260 171
0 32 1 31 -36 13 -16 -8 -67 -20 -112 -26 -91 -12 -208 -45 -217 -60 -13 -21
-31 -7 -59 45 -30 57 -107 135 -134 135 -9 0 1 -17 27 -45z m90 -342 c-16 -50
-38 -83 -55 -83 -31 0 -9 77 33 116 32 30 39 19 22 -33z"/>
<path d="M3942 2860 c3 -8 -5 -35 -17 -60 -13 -25 -25 -52 -28 -60 -3 -8 -6 0
-6 18 -1 38 -16 39 -42 1 -12 -16 -16 -35 -12 -57 6 -37 22 -37 40 -1 l13 24
0 -25 c0 -15 5 -31 12 -38 9 -9 5 -17 -16 -33 -16 -12 -36 -35 -45 -50 l-17
-28 4 59 c5 68 -5 76 -53 38 -26 -20 -27 -25 -21 -80 4 -41 2 -58 -6 -58 -9 0
-9 -3 0 -12 9 -9 18 -7 41 10 l29 21 16 -24 c9 -13 16 -26 16 -29 0 -2 -27
-21 -61 -41 -71 -44 -102 -92 -80 -126 15 -25 18 -22 -41 -44 -25 -9 -61 -31
-79 -49 -20 -19 -28 -24 -22 -11 6 11 17 48 23 83 7 34 17 62 21 62 5 0 9 5 9
10 0 18 -46 11 -81 -13 -39 -26 -58 -71 -58 -140 -1 -27 -5 -46 -10 -42 -5 3
-12 1 -15 -4 -3 -5 6 -12 21 -16 19 -4 34 0 55 15 26 19 28 19 28 3 0 -10 5
-25 10 -33 9 -13 11 -13 21 0 9 13 10 13 6 0 -2 -8 -30 -24 -63 -35 -115 -41
-144 -65 -144 -119 0 -21 -5 -26 -25 -26 -14 0 -42 -7 -62 -15 -43 -18 -46
-18 -37 -3 4 7 11 44 14 82 4 39 10 79 14 89 11 23 -14 22 -64 -3 -52 -26 -60
-45 -60 -131 0 -53 -4 -77 -17 -91 -15 -17 -15 -18 14 -18 17 0 43 10 58 22
26 20 27 20 21 2 -7 -25 10 -55 22 -36 6 9 21 11 49 6 67 -10 123 30 123 89 0
22 6 26 58 36 79 15 116 53 117 117 0 43 1 45 39 55 64 17 86 48 86 119 0 54
2 60 21 60 41 0 91 32 106 68 13 31 13 52 -3 103 -3 11 9 25 36 43 47 31 58
62 35 105 -16 32 -16 33 16 68 28 32 31 41 26 81 -3 24 -13 51 -22 61 -14 13
-17 13 -13 1z"/>
<path d="M2162 2808 c-7 -7 -12 -29 -12 -50 0 -29 8 -47 35 -76 30 -34 32 -40
20 -53 -8 -8 -17 -29 -21 -46 -6 -28 -2 -37 26 -63 18 -17 43 -33 57 -36 18
-5 22 -11 17 -23 -30 -68 -7 -120 61 -142 48 -15 50 -18 48 -50 -3 -47 15 -97
40 -113 12 -8 39 -17 61 -21 29 -5 36 -9 27 -18 -27 -27 -2 -89 44 -112 18 -8
59 -15 90 -15 52 0 56 -2 50 -20 -10 -32 5 -79 30 -96 12 -8 45 -19 71 -23 27
-5 56 -10 64 -12 10 -3 16 5 18 23 l3 27 34 -16 c39 -19 74 -11 55 12 -6 8
-15 53 -20 101 -7 81 -10 90 -39 116 -22 19 -42 28 -67 28 -34 0 -35 -1 -20
-22 9 -12 16 -40 16 -61 0 -34 -2 -37 -19 -28 -13 8 -21 27 -26 68 -4 32 -13
73 -20 90 -16 38 -68 73 -107 73 -30 0 -38 -17 -14 -26 9 -4 17 -27 22 -60 3
-30 14 -69 23 -87 l17 -33 -41 22 c-22 13 -64 28 -93 34 -29 7 -52 15 -52 20
0 4 9 6 20 3 16 -4 20 0 20 22 0 37 -59 92 -116 107 -42 12 -44 14 -44 51 0
52 -23 87 -78 122 -25 16 -40 31 -34 33 7 2 12 19 12 37 0 28 -9 41 -51 78
-39 34 -47 46 -35 50 9 4 16 18 16 34 1 24 2 25 11 11 16 -28 39 -22 41 10 2
46 -2 65 -19 84 -23 26 -30 23 -38 -18 l-6 -36 -30 47 c-16 25 -27 51 -24 56
9 13 -9 11 -23 -3z m652 -811 c27 -1 36 -6 40 -23 3 -12 9 -30 13 -40 5 -14 3
-16 -13 -9 -10 4 -41 16 -69 26 -44 16 -50 21 -52 48 -1 30 -1 30 23 15 13 -9
39 -16 58 -17z"/>
<path d="M2455 2783 c4 -10 17 -52 30 -93 31 -107 59 -156 129 -226 109 -109
306 -180 387 -140 28 14 35 14 47 3 12 -12 10 -22 -14 -68 -44 -87 -47 -109
-22 -136 12 -13 27 -23 34 -23 10 0 10 -10 -1 -47 -26 -84 -15 -183 20 -183 8
0 15 5 15 10 0 6 -5 10 -11 10 -24 0 0 81 46 160 46 78 47 81 31 105 -9 14
-20 25 -25 25 -5 0 -7 26 -4 58 5 53 3 59 -23 85 -25 26 -34 28 -69 22 -65
-10 -107 -6 -160 19 -99 45 -162 122 -217 264 -17 42 -39 89 -49 104 -27 37
-80 68 -119 68 -27 0 -31 -3 -25 -17z"/>
<path d="M3607 2660 c-42 -89 -192 -225 -307 -278 -31 -15 -80 -28 -113 -30
-50 -4 -61 -1 -83 19 -23 22 -24 22 -24 2 0 -41 35 -58 124 -58 75 0 89 3 162
39 58 29 97 58 149 110 68 69 125 162 125 205 0 34 -14 30 -33 -9z"/>
<path d="M2310 2639 c-12 -43 -4 -81 25 -126 24 -36 33 -28 40 41 7 63 -2 101
-29 118 -20 14 -25 9 -36 -33z"/>
<path d="M2391 2465 c11 -86 38 -137 78 -147 11 -2 13 12 12 66 -3 74 -19 119
-50 136 -42 22 -48 14 -40 -55z"/>
<path d="M3669 2501 c-27 -27 -29 -35 -29 -100 0 -49 -4 -71 -12 -71 -9 0 -9
-3 -1 -11 35 -35 93 49 101 147 4 56 3 64 -12 64 -10 0 -31 -13 -47 -29z"/>
<path d="M2506 2381 c-3 -5 1 -11 9 -15 11 -4 15 -20 15 -56 0 -28 7 -64 15
-79 19 -37 71 -81 96 -81 23 0 24 6 4 26 -10 10 -15 35 -15 73 0 67 -22 105
-76 127 -39 16 -41 17 -48 5z"/>
<path d="M802 2108 c3 -79 8 -151 13 -161 16 -38 107 -61 145 -37 9 5 19 5 27
-1 16 -14 30 58 14 74 -6 6 -12 9 -13 6 -2 -2 -10 -17 -18 -33 -19 -36 -49
-48 -81 -32 -23 11 -24 16 -27 145 -3 148 1 161 53 161 36 0 49 -12 59 -52 9
-39 23 -35 31 9 5 30 3 40 -12 50 -10 8 -19 10 -21 4 -2 -6 -12 -6 -28 1 -18
8 -34 8 -61 0 -23 -7 -42 -8 -54 -2 -10 6 -21 10 -24 10 -4 0 -5 -64 -3 -142z"/>
<path d="M1154 2236 c-63 -28 -83 -99 -43 -150 23 -29 54 -34 63 -11 8 23 53
18 70 -7 23 -32 20 -90 -5 -122 -28 -36 -78 -33 -96 5 -7 15 -20 32 -28 39
-13 11 -15 6 -15 -33 0 -42 14 -71 22 -47 2 7 14 6 34 -1 40 -16 100 -4 130
26 26 26 33 90 14 126 -22 40 -111 64 -138 37 -30 -30 -27 79 4 113 32 35 86
15 95 -35 7 -34 26 -28 34 11 5 30 3 40 -12 50 -10 8 -19 10 -21 4 -2 -7 -12
-7 -28 0 -32 12 -42 11 -80 -5z"/>
<path d="M1450 2238 c-19 -4 -45 -5 -58 -3 -22 5 -23 3 -20 -36 3 -42 28 -69
28 -31 0 20 29 52 48 52 9 0 12 -40 12 -141 0 -143 8 -179 38 -179 16 0 17 13
12 152 -3 84 -9 159 -13 166 -5 7 -3 12 5 12 23 0 46 -23 50 -49 5 -38 25 -36
32 4 8 43 0 58 -26 52 -10 -3 -31 -2 -46 2 -15 4 -43 4 -62 -1z"/>
<path d="M3401 2236 c-50 -18 -69 -51 -81 -136 -6 -41 -16 -78 -23 -82 -9 -5
-9 -10 0 -19 18 -18 70 -1 97 31 23 28 46 104 46 154 0 13 7 29 15 36 16 13
11 30 -8 29 -7 0 -28 -6 -46 -13z"/>
<path d="M4467 2213 c-4 -22 -2 -42 5 -51 10 -11 15 -7 30 22 29 57 98 61 106
7 3 -16 -15 -41 -64 -90 -99 -101 -115 -140 -73 -182 l21 -21 22 21 c30 28 79
27 106 -1 11 -12 21 -20 22 -17 25 40 28 51 18 69 -13 25 -27 26 -32 3 -3 -14
-13 -18 -48 -18 -25 0 -56 -4 -68 -9 -22 -7 -23 -6 -12 16 7 12 44 55 81 94
58 60 69 77 69 106 0 62 -61 102 -120 78 -23 -9 -33 -10 -44 -1 -11 9 -15 4
-19 -26z"/>
<path d="M4773 2234 c-45 -23 -73 -84 -73 -162 0 -104 35 -159 108 -169 120
-16 180 203 84 308 -33 36 -76 45 -119 23z m75 -16 c26 -26 14 -75 -30 -126
-24 -27 -48 -57 -55 -68 -10 -16 -12 -11 -12 36 -1 125 49 206 97 158z m32
-194 c-4 -34 -14 -71 -21 -83 -18 -27 -64 -28 -79 -2 -18 35 -11 60 35 111 25
28 48 63 52 78 l7 27 7 -35 c4 -19 4 -63 -1 -96z"/>
<path d="M5000 2092 c5 -168 12 -192 53 -192 16 0 18 3 9 12 -8 8 -12 58 -12
159 0 141 -1 149 -22 163 -12 9 -25 16 -28 16 -3 0 -3 -71 0 -158z"/>
<path d="M5202 2240 c-12 -5 -29 -7 -37 -4 -15 6 -29 -31 -23 -62 4 -21 28
-31 28 -11 0 28 40 67 70 67 26 0 50 -22 50 -45 0 -3 -36 -44 -80 -91 -88 -93
-102 -132 -63 -176 15 -16 17 -16 41 2 32 26 77 25 103 -1 20 -20 21 -20 34
-2 18 22 19 45 3 61 -18 18 -28 15 -28 -8 0 -18 -5 -20 -37 -14 -21 3 -50 1
-65 -5 -16 -6 -28 -7 -28 -3 0 14 43 67 93 115 52 52 70 86 61 122 -12 47 -73
75 -122 55z"/>
<path d="M920 2095 c-7 -8 -19 -15 -27 -15 -8 0 -11 -4 -8 -10 3 -5 17 -10 30
-10 13 0 27 -5 31 -12 5 -8 11 -2 15 17 5 15 6 32 3 37 -8 13 -30 9 -44 -7z"/>
<path d="M1642 1943 c4 -43 23 -55 32 -19 8 31 -2 56 -21 56 -10 0 -13 -10
-11 -37z"/>
<path d="M2465 1866 c-34 -10 -61 -26 -87 -55 -39 -41 -54 -79 -20 -49 59 53
267 47 452 -13 110 -36 212 -81 203 -90 -5 -5 -43 3 -84 16 -108 34 -198 48
-284 43 -84 -4 -128 -27 -133 -71 l-3 -25 41 20 c60 30 201 36 324 13 53 -9
96 -20 96 -24 0 -3 -30 -36 -66 -71 -73 -71 -107 -128 -102 -167 3 -29 28 -45
28 -18 0 59 75 142 175 192 l69 35 63 -31 c101 -49 173 -125 173 -181 0 -25
23 -22 28 3 6 30 -32 91 -101 163 -37 40 -64 74 -60 77 4 2 48 12 97 22 116
22 279 18 320 -8 33 -22 43 -16 28 17 -34 76 -192 80 -408 12 -73 -24 -101
-25 -89 -6 10 16 209 88 290 105 44 9 127 17 185 18 89 2 111 -1 148 -19 52
-27 54 -13 4 36 -41 42 -117 70 -186 70 -107 -1 -279 -58 -414 -139 l-84 -50
-41 26 c-78 49 -216 113 -288 133 -99 27 -211 34 -274 16z m685 -271 c17 -9
30 -18 30 -21 0 -4 -59 23 -69 32 -10 9 13 3 39 -11z m-150 0 c0 -2 -10 -9
-22 -15 -22 -11 -22 -10 -4 4 21 17 26 19 26 11z"/>
<path d="M2926 1839 c26 -30 114 -99 125 -99 20 0 -25 50 -76 84 -62 41 -76
45 -49 15z"/>
<path d="M3143 1810 c-53 -43 -83 -83 -71 -95 5 -5 148 126 148 136 0 17 -15
9 -77 -41z"/>
<path d="M402 1032 c3 -90 6 -103 27 -126 14 -14 35 -26 47 -26 32 0 36 -12
19 -54 -20 -48 -19 -63 10 -91 27 -28 67 -36 45 -10 -15 18 -5 50 56 181 50
107 55 150 21 190 l-23 26 -1 -33 c-1 -42 -66 -187 -88 -195 -30 -12 -42 14
-47 100 -4 85 -13 107 -51 127 -18 10 -19 7 -15 -89z"/>
<path d="M5498 1031 c4 -112 15 -136 72 -151 40 -11 40 -11 26 -38 -29 -56
-24 -97 14 -117 16 -8 30 -15 32 -15 2 0 3 19 4 43 0 29 15 74 48 142 52 109
59 155 31 198 -22 35 -32 34 -28 0 4 -33 -69 -196 -90 -201 -31 -6 -47 27 -47
96 0 88 -7 110 -39 126 l-26 14 3 -97z"/>
<path d="M798 1105 c-15 -9 -38 -38 -53 -70 -24 -48 -27 -64 -24 -138 4 -74 7
-88 33 -121 99 -130 246 -43 246 144 0 70 -19 121 -60 162 -31 31 -45 38 -76
38 -22 -1 -51 -7 -66 -15z m100 -30 c77 -98 29 -392 -55 -339 -69 43 -85 252
-27 342 19 30 57 28 82 -3z"/>
<path d="M840 931 c0 -21 6 -44 13 -50 11 -8 16 -3 24 24 9 28 8 36 -6 49 -26
24 -31 20 -31 -23z"/>
<path d="M1080 952 c6 -186 12 -208 70 -232 26 -11 42 -11 77 -2 32 9 49 9 65
1 22 -12 50 3 29 15 -7 5 -11 65 -11 177 0 156 -2 171 -20 189 -42 42 -45 31
-42 -164 3 -180 2 -185 -19 -196 -30 -16 -68 -4 -79 26 -6 14 -10 89 -10 168
0 136 -1 144 -23 164 -13 12 -27 22 -33 22 -5 0 -7 -67 -4 -168z"/>
<path d="M1410 943 c3 -98 9 -185 13 -194 8 -17 56 -43 64 -35 3 2 0 13 -6 24
-9 17 -17 152 -8 152 1 0 17 -4 35 -9 21 -6 43 -6 58 -1 24 9 24 9 24 -56 0
-56 4 -68 25 -89 13 -14 31 -25 40 -25 17 0 20 16 5 25 -5 3 -10 34 -10 69 0
37 -6 70 -14 81 -12 16 -11 23 5 49 36 59 16 141 -41 171 -33 17 -102 20 -130
5 -13 -7 -21 -7 -25 0 -3 5 -14 10 -23 10 -16 0 -17 -15 -12 -177z m164 138
c21 -23 31 -87 19 -119 -8 -21 -16 -24 -66 -25 l-57 -2 0 70 c0 42 5 76 12 83
19 19 73 14 92 -7z m-15 -160 c12 -8 10 -12 -11 -22 -35 -15 -66 -5 -48 16 14
17 38 19 59 6z"/>
<path d="M1850 951 c5 -163 6 -171 29 -195 34 -36 90 -52 132 -37 22 8 36 8
43 1 15 -15 21 -12 24 8 7 66 6 75 -13 88 -19 13 -21 12 -23 -19 -2 -36 -33
-67 -66 -67 -55 1 -66 33 -66 204 0 133 -2 148 -20 166 -42 42 -45 31 -40
-149z"/>
<path d="M2175 1089 c-71 -62 -87 -225 -30 -310 26 -39 74 -69 113 -69 33 0
86 44 110 90 17 33 22 61 22 115 0 167 -116 261 -215 174z m129 -33 c28 -56
33 -192 9 -261 -14 -38 -25 -52 -47 -60 -25 -8 -31 -6 -51 17 -57 67 -56 267
3 331 26 29 62 18 86 -27z"/>
<path d="M2234 935 c-4 -23 -2 -41 7 -51 11 -13 14 -11 26 17 17 41 17 46 -7
59 -17 9 -20 6 -26 -25z"/>
<path d="M2529 1097 c-145 -98 -94 -387 69 -387 61 0 140 86 102 110 -24 15
-30 12 -30 -15 0 -31 -41 -75 -70 -75 -60 0 -90 60 -90 179 0 117 33 191 87
191 28 0 63 -33 63 -59 0 -20 17 -37 27 -28 2 3 7 23 10 44 4 29 1 42 -13 53
-13 11 -18 12 -21 3 -3 -9 -12 -9 -29 -2 -40 14 -68 11 -105 -14z"/>
<path d="M2880 1108 c0 -8 -29 -72 -65 -143 -75 -148 -80 -178 -36 -227 22
-25 33 -30 41 -22 9 9 21 9 47 1 25 -8 43 -8 64 0 17 7 31 7 35 2 8 -13 24
-11 24 3 0 6 7 19 16 29 15 17 15 21 -5 62 -11 24 -21 47 -21 52 0 24 -74 236
-86 246 -11 9 -14 8 -14 -3z m88 -326 c-8 -15 -17 -21 -27 -17 -40 16 -69 15
-103 -3 l-38 -20 0 23 c0 12 25 73 56 136 l57 114 33 -105 c28 -88 32 -109 22
-128z m-40 -34 c-5 -15 -78 -24 -78 -10 0 16 13 22 48 22 22 0 32 -4 30 -12z"/>
<path d="M3060 956 c4 -147 7 -168 26 -193 29 -39 88 -58 137 -43 28 8 42 8
51 0 11 -8 15 -1 20 32 6 34 3 45 -12 61 -19 19 -20 18 -26 -17 -11 -58 -75
-87 -108 -48 -13 13 -17 50 -20 175 -3 153 -4 160 -27 178 -45 36 -46 30 -41
-145z"/>
<path d="M3430 943 c6 -183 10 -209 38 -217 118 -32 201 3 218 90 4 24 0 45
-15 73 -18 37 -19 43 -6 68 45 85 -23 172 -124 159 -67 -9 -74 -9 -96 -1 -20
6 -20 3 -15 -172z m175 133 c11 -16 15 -41 13 -73 l-3 -48 -50 -3 c-27 -2 -55
-8 -62 -14 -10 -8 -13 4 -13 62 0 82 11 99 67 100 24 0 37 -7 48 -24z m-24
-151 c0 -5 -7 -12 -16 -13 -23 -5 -47 6 -40 19 8 13 56 8 56 -6z m-3 -30 c39
6 40 6 46 -27 3 -18 2 -46 -2 -63 -8 -29 -10 -30 -70 -30 l-62 0 0 73 0 72 25
-16 c17 -11 35 -14 63 -9z m0 -147 c-3 -7 -17 -13 -33 -13 -16 0 -30 6 -32 13
-3 8 7 12 32 12 25 0 35 -4 33 -12z"/>
<path d="M3767 938 c3 -190 7 -209 51 -220 15 -4 17 5 14 83 l-4 88 29 -8 c15
-5 43 -6 60 -4 l32 5 3 -73 c3 -68 5 -74 30 -88 15 -9 29 -13 31 -11 8 10 -11
158 -24 177 -10 17 -9 24 4 44 10 14 17 43 17 71 0 66 -37 108 -102 115 -26 3
-60 1 -77 -5 -19 -7 -33 -7 -36 -1 -4 5 -12 9 -18 9 -9 0 -11 -46 -10 -182z
m168 132 c16 -30 20 -107 7 -125 -4 -5 -30 -10 -59 -10 l-52 0 -3 69 c-3 80 6
96 57 96 28 0 37 -6 50 -30z m-22 -147 c4 -3 2 -12 -4 -20 -13 -15 -55 -18
-64 -4 -11 19 52 41 68 24z"/>
<path d="M4100 952 c4 -139 8 -173 23 -195 29 -45 97 -60 151 -36 19 9 29 9
39 1 21 -17 40 63 20 84 -21 21 -33 17 -33 -9 0 -52 -72 -84 -116 -53 -17 13
-19 30 -22 166 -4 174 2 190 68 190 41 0 60 -14 60 -45 0 -22 17 -45 34 -45 5
0 7 3 3 6 -3 3 -1 19 5 35 8 24 7 34 -7 49 -18 20 -41 28 -31 11 3 -4 -12 -3
-34 2 -28 8 -49 8 -76 -1 -24 -7 -43 -8 -55 -2 -10 6 -21 10 -26 10 -4 0 -6
-76 -3 -168z"/>
<path d="M4430 946 c5 -166 6 -176 28 -199 31 -33 64 -40 105 -23 29 11 37 11
60 -1 20 -10 36 -11 61 -5 20 6 39 6 50 0 22 -12 41 -1 26 17 -8 9 -10 68 -8
180 3 165 3 167 -21 186 -45 37 -46 31 -41 -168 5 -182 2 -203 -25 -203 -36 0
-40 18 -43 182 -3 150 -5 165 -24 186 -41 43 -43 32 -38 -160 4 -105 2 -188
-3 -195 -14 -19 -45 -16 -57 6 -5 11 -10 86 -10 171 0 147 -1 152 -25 175 -13
14 -28 25 -32 25 -4 0 -6 -78 -3 -174z"/>
<path d="M4842 958 c3 -138 7 -168 23 -195 28 -48 107 -69 157 -42 14 8 23 8
31 0 13 -13 31 -15 23 -2 -3 4 0 22 6 39 9 24 9 34 -1 46 -19 23 -27 20 -37
-16 -17 -58 -98 -77 -123 -29 -6 10 -11 85 -12 166 -1 165 2 175 66 175 41 0
63 -18 67 -54 4 -42 23 -43 35 -1 10 30 8 38 -9 58 -12 14 -21 18 -24 11 -4
-9 -13 -9 -34 -1 -22 8 -41 8 -76 -1 -33 -9 -50 -10 -58 -2 -5 5 -16 10 -24
10 -12 0 -13 -28 -10 -162z"/>
<path d="M5170 943 c3 -98 9 -185 13 -194 8 -17 56 -43 64 -35 3 2 0 13 -6 24
-9 17 -17 152 -8 152 1 0 17 -4 35 -9 21 -6 43 -6 58 -1 24 9 24 9 24 -56 0
-56 4 -68 25 -89 13 -14 31 -25 40 -25 17 0 20 16 5 25 -5 3 -10 34 -10 69 0
37 -6 70 -14 81 -12 16 -11 23 5 49 37 60 16 141 -42 172 -29 15 -40 15 -144
4 -5 -1 -19 1 -30 5 -20 6 -20 3 -15 -172z m164 138 c21 -23 31 -87 19 -119
-8 -21 -16 -24 -66 -25 l-57 -2 0 70 c0 42 5 76 12 83 19 19 73 14 92 -7z
m-15 -160 c12 -8 10 -12 -11 -22 -35 -15 -66 -5 -48 16 14 17 38 19 59 6z"/>
<path d="M4237 944 c-10 -13 -25 -24 -34 -24 -12 0 -14 -3 -6 -11 6 -6 19 -9
29 -7 11 2 24 -3 31 -12 14 -18 19 -14 27 27 6 25 3 34 -11 41 -14 8 -22 5
-36 -14z"/>
<path d="M4986 945 c-9 -14 -26 -25 -37 -25 -11 0 -17 -4 -14 -10 3 -5 19 -10
35 -10 16 0 32 -4 35 -10 11 -19 23 -10 27 20 3 20 -1 35 -12 45 -16 14 -19
13 -34 -10z"/>
</g>
</svg>
